<?xml version="1.0" encoding="UTF-8"?>
<svg id="Layer_1" data-name="Layer 1" xmlns="http://www.w3.org/2000/svg" viewBox="0 0 191.33 132.78">
  <defs>
    <style>
      .cls-1 {
        stroke-width: 3px;
      }

      .cls-1, .cls-2 {
        fill: none;
        stroke: #728b8c;
        stroke-miterlimit: 10;
      }

      .cls-2 {
        stroke-width: 2px;
      }
    </style>
  </defs>
  <path class="cls-1" d="M4.77,2.45c20.75-.32,41.5-.63,62.26-.95,3.51,.06,9.06,.73,14.42,4.16,2.62,1.67,4.34,3.45,5.78,4.96,2.34,2.46,5.67,6.54,8.37,12.61,1.25-3.07,4-8.59,9.66-13.42,4.61-3.93,9.17-5.72,11.48-6.49,4.23-1.41,7.95-1.73,10.49-1.76,31.57,.14,54.53,.29,57.78,.29,.52,0,1.88,0,3.01,.89,1.32,1.03,1.66,2.75,1.77,3.81,.01,40.47,.03,80.93,.04,121.4-.02,.2-.16,1.47-1.3,2.3-.99,.73-2.06,.62-2.3,.59-60.22,.14-120.43,.29-180.65,.43-.45-.09-1.74-.41-2.8-1.59-1.34-1.5-1.3-3.28-1.28-3.65,.13-40,.26-80,.38-119.99-.02-.28-.06-1.29,.64-2.24,.81-1.11,2.01-1.31,2.24-1.35Z"/>
  <path class="cls-1" d="M95.6,23.23c.09,35.94,.18,71.88,.27,107.82"/>
  <path class="cls-2" d="M1.51,124.43c62.77,.15,125.55,.29,188.32,.44"/>
  <path class="cls-2" d="M1.71,117.82c62.77,.15,125.55,.29,188.32,.44"/>
  <path class="cls-2" d="M1.55,112.07c30.3,.03,60.61,.06,90.91,.09"/>
  <path class="cls-2" d="M1.57,106.22c28.04-.01,56.09-.03,84.13-.04"/>
  <path class="cls-1" d="M1.59,99.55c5.04-.04,44.74-.32,64.32,.06,1.32,.03,3.93,.1,7.27,.88,12.21,2.83,19.65,11.68,22.66,15.79,1.44-2.73,6.61-11.73,17.11-15.03,3.13-.98,6.02-1.24,8.38-1.2,22.83,.06,45.66,.12,68.49,.18"/>
  <path class="cls-2" d="M97.4,112.68c30.81-.07,61.61-.13,92.42-.2"/>
  <path class="cls-2" d="M103.76,106.33c28.69-.04,57.37-.08,86.06-.12"/>
</svg>